# xmcd
#
# Track frame offsets:
#	150
#	8250
#	14221
#	21997
#	33817
#	39362
#	47331
#	53868
#	60945
#	74306
#	77402
#	82216
#	90512
#	96904
#	106430
#	112663
#	117235
#	124746
#	130348
#
# Disc length: 1831 seconds
# Revision: 0
# Processed by: cddbd v1.5.2PL0 Copyright (c) Steve Scherf et al.
# Submitted via: dBpowerAMP V12.0
#
DISCID=e4072513
DTITLE=Zilla Murdock - Piano Selections
DYEAR=2007
DGENRE=Instrumental
TTITLE0=St. Louis Blues
TTITLE1=Stardust
TTITLE2=Up A Lazy River
TTITLE3=September Song
TTITLE4=Amazing Grace
TTITLE5=Stormy Weather
TTITLE6=Red Sails In The Sunset
TTITLE7=Mockingbird Hill
TTITLE8=Sweet Georgia Brown
TTITLE9=Darktown Strutters Ball
TTITLE10=Theme From Picnic
TTITLE11=Basin Street Blues
TTITLE12=America
TTITLE13=Danny Boy
TTITLE14=Lulu's Back In Town
TTITLE15=Mystery Tune
TTITLE16=My Blue Heaven
TTITLE17=Stardist (2)
TTITLE18=St. Louis Blues (2)
EXTD=
EXTT0=
EXTT1=
EXTT2=
EXTT3=
EXTT4=
EXTT5=
EXTT6=
EXTT7=
EXTT8=
EXTT9=
EXTT10=
EXTT11=
EXTT12=
EXTT13=
EXTT14=
EXTT15=
EXTT16=
EXTT17=
EXTT18=
PLAYORDER=
